<svg width="765" height="125" viewBox="0 0 765 125" fill="none" xmlns="http://www.w3.org/2000/svg">
<path d="M156.341 81.3777C158.865 77.7552 160.115 73.3164 160.115 68.0103C160.115 62.7042 158.916 58.0358 156.519 54.2348C154.173 50.4338 149.456 48.5205 142.367 48.5205H105.723V112.219H121.814V86.7348H132.218L143.846 112.219H161.262L148.334 86.097C152.031 85.2807 154.709 83.7246 156.341 81.3777ZM142.52 74.6685C141.551 76.1736 139.715 76.9389 137.037 76.9389H121.788V59.4389H137.037C139.689 59.4389 141.5 60.2042 142.52 61.7603C143.514 63.2654 144.024 65.4338 144.024 68.2144C144.024 70.995 143.514 73.1379 142.52 74.6685Z" fill="#FD7D00"/>
<path d="M185.513 48.444L165.215 112.245H181.739L186.074 96.7093H207.723L212.007 112.245H228.506L208.182 48.444H185.487H185.513ZM188.726 86.1481L196.835 57.8317H196.988L205.148 86.1481H188.726Z" fill="#FD7D00"/>
<path d="M252.781 48.546H236.793V112.245H252.781V48.546Z" fill="#FD7D00"/>
<path d="M314.696 81.046C311.355 78.8521 305.159 76.8113 296.055 74.9235C290.573 73.8266 286.238 72.7552 283.025 71.7092C279.812 70.6633 278.205 68.6735 278.205 65.7143C278.205 63.5205 279.353 61.8113 281.648 60.6123C283.968 59.4133 287.079 58.8266 290.93 58.8266C294.576 58.8266 297.585 59.5409 299.931 60.9949C302.328 62.398 303.527 65.7654 303.527 71.046H319.566C319.566 64.0307 317.577 58.4184 313.574 54.2347C309.57 50.0511 302.099 47.9592 291.108 47.9592C280.118 47.9592 272.723 49.8725 268.694 53.7245C264.665 57.5511 262.65 62.1684 262.65 67.5511C262.65 72.9337 264.359 76.9643 267.801 79.3368C271.218 81.7347 277.338 83.8521 286.11 85.7143C291.644 86.8113 295.979 87.8827 299.141 88.9286C302.277 89.9745 303.858 91.9133 303.858 94.7449C303.858 97.1429 302.711 98.9031 300.416 100.077C298.121 101.199 295.061 101.786 291.261 101.786C287.462 101.786 284.427 101.071 282.107 99.6174C279.812 98.1378 278.664 94.6684 278.664 89.2347H262.625C262.625 96.6837 264.588 102.475 268.515 106.556C272.468 110.612 280.092 112.653 291.389 112.653C302.685 112.653 309.851 110.714 313.752 106.811C317.679 102.883 319.643 98.1378 319.643 92.5511C319.643 86.9643 317.985 83.2909 314.645 81.0715L314.696 81.046Z" fill="#FD7D00"/>
<path d="M327.369 112.245H373.932V101.352H343.409V85.1532H371.765V74.7705H343.409V59.4389H373.932V48.546H327.369V112.245Z" fill="#FD7D00"/>
<path d="M381.531 59.4389H400.503V112.245H416.594V59.4389H435.489V48.546H381.531V59.4389Z" fill="#FD7D00"/>
<path d="M442.349 112.245H488.912V101.352H458.388V85.1532H486.744V74.7705H458.388V59.4389H488.912V48.546H442.349V112.245Z" fill="#FD7D00"/>
<path d="M524.816 58.8776C528.819 58.8776 531.854 59.9235 533.97 61.9898C536.112 64.0307 537.183 68.1123 537.183 74.2092H553.452C553.452 67.0919 551.54 60.9439 547.74 55.7654C543.941 50.5868 536.316 47.9847 524.918 47.9847C513.519 47.9847 505.818 50.7143 501.611 56.199C497.429 61.6327 495.338 69.6684 495.338 80.2552C495.338 90.8419 497.429 98.8266 501.611 104.362C505.818 109.873 513.596 112.628 524.969 112.628C536.342 112.628 543.89 109.975 547.715 104.694C551.54 99.4133 553.478 93.3164 553.478 86.3776H537.209C537.209 92.347 536.138 96.4031 533.996 98.546C531.854 100.663 528.794 101.709 524.841 101.709C520.889 101.709 517.548 100.51 515.177 98.1123C512.78 95.7143 511.581 89.7705 511.581 80.2296C511.581 70.6888 512.78 64.796 515.177 62.449C517.574 60.0511 520.787 58.8521 524.841 58.8521L524.816 58.8776Z" fill="#FD7D00"/>
<path d="M600.755 48.546V74.9236H577.269V48.546H561.179V112.245H577.269V85.8164H600.755V112.245H616.794V48.546H600.755Z" fill="#FD7D00"/>
<path d="M752.25 125H650.25C643.212 125 637.5 119.286 637.5 112.245V40.8164C637.5 33.7756 643.212 28.0613 650.25 28.0613H752.25C759.288 28.0613 765 33.7756 765 40.8164V112.245C765 119.286 759.288 125 752.25 125ZM650.25 35.7143C647.445 35.7143 645.15 38.0103 645.15 40.8164V112.245C645.15 115.051 647.445 117.347 650.25 117.347H752.25C755.055 117.347 757.35 115.051 757.35 112.245V40.8164C757.35 38.0103 755.055 35.7143 752.25 35.7143H650.25Z" fill="#013183"/>
<path d="M666.392 100.765L681.743 52.4745H698.904L714.281 100.765H701.786L698.547 89.0051H682.151L678.861 100.765H666.366H666.392ZM684.165 81.0204H696.584L690.413 59.5918H690.311L684.165 81.0204ZM720.554 100.765V52.551H732.666V100.765H720.554Z" fill="#013183"/>
<mask id="mask0_9610_201" style="mask-type:luminance" maskUnits="userSpaceOnUse" x="0" y="0" width="82" height="113">
<path d="M81.6 0H0V112.245H81.6V0Z" fill="white"/>
</mask>
<g mask="url(#mask0_9610_201)">
<path d="M43.0184 35.4847C37.7144 40.8673 33.8639 46.3265 32.6399 49.7959C31.4159 46.3265 27.5399 40.8673 22.2614 35.4847C16.9574 30.102 11.6279 26.148 8.21094 24.898C11.6279 23.648 16.9574 19.6939 22.2614 14.3112C27.5654 8.92857 31.4159 3.46939 32.6399 0C33.8639 3.46939 37.7399 8.92857 43.0184 14.3112C48.3224 19.6939 53.6519 23.648 57.0689 24.898C53.6519 26.148 48.3224 30.102 43.0184 35.4847Z" fill="#FFC42F"/>
<path d="M32.64 66.5051L0 33.2653V83.9796C14.586 86.9898 26.316 97.9592 30.7275 112.245H34.017C39.066 88.75 57.987 70.5613 81.6255 67.1174V16.6327L32.6655 66.5051H32.64Z" fill="#FD7D00"/>
</g>
</svg>
